<?xml version="1.0" encoding="utf-8"?>
<svg viewBox="60.019 2.659 19.2 19.2" xmlns="http://www.w3.org/2000/svg">
  <g id="logo/24/text/color/gofood" stroke="none" stroke-width="1" fill="none" fill-rule="evenodd" transform="matrix(1, 0, 0, 1, 60.018517, 0.25926)">
    <g id="Group" transform="translate(0.000000, 1.461720)">
      <path d="M8.91328,9.77892 C8.86928,10.87012 8.29008,11.80612 7.45008,12.31732 C7.04608,12.56292 6.75968,12.97812 6.73648,13.47172 L6.66208,15.09092 C6.64208,15.52852 6.30128,15.87172 5.88928,15.87172 C5.47568,15.87172 5.13488,15.52772 5.11568,15.08932 L5.04048,13.41252 C5.01888,12.92052 4.74288,12.49812 4.34448,12.24452 C3.47248,11.68932 2.89328,10.70372 2.86128,9.54292 C2.83088,8.45732 2.90368,7.35412 3.07728,6.26612 C3.14048,5.86452 3.49568,5.58852 3.87648,5.66372 C4.25408,5.73012 4.50848,6.11092 4.44448,6.51172 C4.31808,7.31172 4.25808,7.80292 4.25168,8.78292 C4.24928,9.06132 4.46128,9.28612 4.72288,9.28612 C4.98288,9.28612 5.20128,9.06212 5.20128,8.78612 L5.19728,5.94052 C5.19728,5.49412 5.57328,5.13972 6.00768,5.21492 C6.34928,5.27412 6.58528,5.61412 6.58528,5.98052 L6.58928,8.78612 C6.58928,9.06212 6.79968,9.28612 7.06048,9.28612 C7.32208,9.28612 7.53248,9.06212 7.53088,8.78372 C7.52768,7.80372 7.46528,7.31252 7.33808,6.51172 C7.27408,6.11092 7.52928,5.73012 7.90608,5.66372 C8.27648,5.59012 8.64208,5.86452 8.70528,6.26612 C8.89248,7.43332 8.96208,8.61492 8.91328,9.77892 Z M12.8016,5.20468 C14.6304,5.20468 15.5456,7.97108 15.5456,9.79828 C15.5456,10.78708 15.0104,11.63908 14.2768,12.14228 C13.924,12.38388 13.68,12.76548 13.6592,13.21028 L13.572,15.09028 C13.552,15.52708 13.2136,15.87028 12.8016,15.87188 C12.3896,15.87028 12.0512,15.52708 12.0304,15.09028 L11.944,13.21028 C11.9232,12.76548 11.6792,12.38388 11.3264,12.14228 C10.5928,11.63908 10.0576,10.78708 10.0576,9.79828 C10.0576,7.97108 10.972,5.20468 12.8016,5.20468 Z" id="Shape" fill="#FFFFFF"/>
      <circle id="Oval" fill="#EE2737" fill-rule="nonzero" cx="9.6" cy="10.53828" r="9.6"/>
      <path d="M9.313488,9.778528 C9.28090011,10.8161796 8.73180649,11.7688684 7.85028,12.317224 C7.43417512,12.5583178 7.16637749,12.9916957 7.136896,13.471696 L7.062064,15.0904 C7.05429729,15.5155245 6.71381508,15.8595011 6.288792,15.871608 C5.86321342,15.8594528 5.52250794,15.5146377 5.515456,15.088944 L5.440752,13.412264 C5.41394879,12.9326491 5.15396528,12.4965639 4.7448,12.244904 C3.83024194,11.6483079 3.27368272,10.6347045 3.26112,9.542832 C3.23204946,8.44642386 3.30431645,7.34967416 3.477,6.26656 C3.49861681,6.07852411 3.59641821,5.9075862 3.74756691,5.79366143 C3.89871561,5.67973667 4.08997908,5.63279875 4.276696,5.663808 C4.66442771,5.74603244 4.91625903,6.12195301 4.844776,6.511808 C4.71266948,7.26150388 4.64787805,8.02151276 4.651176,8.782752 C4.64646935,8.91216473 4.693597,9.03810575 4.78210453,9.13263734 C4.87061207,9.22716894 4.99318185,9.2824754 5.122624,9.286288 C5.39227814,9.27887733 5.60582229,9.05597189 5.601664,8.786248 L5.597752,5.940928 C5.59034724,5.73096209 5.67653456,5.52854358 5.83302731,5.38836323 C5.98952006,5.24818288 6.20016768,5.18470776 6.408056,5.215088 C6.75852828,5.29978584 7.00019394,5.62048651 6.985008,5.980728 L6.988864,8.786248 C6.97852893,8.96159222 7.06636284,9.12818532 7.21688012,9.21872236 C7.36739741,9.3092594 7.55572645,9.30877996 7.70578081,9.21747772 C7.85583516,9.12617548 7.94281971,8.95913732 7.931592,8.783848 C7.9360476,8.0222077 7.87139596,7.26173359 7.738432,6.511776 C7.66694897,6.12192101 7.91878029,5.74600044 8.306512,5.663776 C8.49289008,5.63473765 8.68308133,5.68245049 8.8336822,5.79602598 C8.98428308,5.90960146 9.08244268,6.07934809 9.10576,6.266528 C9.29129235,7.42740976 9.36087766,8.60386935 9.313488,9.778528 L9.313488,9.778528 Z M13.20148,5.20496 C15.030752,5.20496 15.945384,7.971168 15.945384,9.798216 C15.9335113,10.7406833 15.459066,11.6170829 14.676408,12.14228 C14.3139521,12.3810403 14.0851956,12.7766388 14.059064,13.20988 L13.972144,15.09096 C13.9757229,15.3686586 13.829623,15.626808 13.5897077,15.7667007 C13.3497924,15.9065934 13.0531676,15.9065934 12.8132523,15.7667007 C12.573337,15.626808 12.4272371,15.3686586 12.430816,15.09096 L12.343896,13.20988 C12.3177675,12.7766399 12.0890138,12.3810411 11.72656,12.14228 C10.9438927,11.6170765 10.4694463,10.7406627 10.457584,9.798184 C10.457584,7.971168 11.372216,5.20496 13.20148,5.20496 Z" id="Shape" fill="#FFFFFF" fill-rule="nonzero"/>
    </g>
  </g>
</svg>